<?xml version="1.0" encoding="UTF-8"?>
<svg width="1010px" height="240px" viewBox="0 0 1010 240" version="1.1" xmlns="http://www.w3.org/2000/svg" xmlns:xlink="http://www.w3.org/1999/xlink">
    <title>logo-text</title>
    <g id="Page-1" stroke="none" stroke-width="1" fill="none" fill-rule="evenodd">
        <g id="logo-text" fill-rule="nonzero">
            <g id="Group">
                <g fill="#FF7F66" id="Path">
                    <path d="M199.213333,7.77733066 L117.324444,27.80239 C115.755306,28.1671754 114.105101,27.8859629 112.746111,27.0221928 L74.035,1.7586672 C72.6029613,0.82868398 70.8349072,0.57076188 69.1961111,1.05277457 L2.19611111,20.7434637 C0.93283689,21.0462135 0.0315855,22.1592247 -1.02140518e-14,23.4555775 L-1.02140518e-14,63.505696 L69.1961111,43.1834188 C70.8349072,42.7014061 72.6029613,42.9593282 74.035,43.8893114 L112.746111,69.1156848 C114.091809,70.0132989 115.756594,70.2969962 117.324444,69.8958819 L201,49.462148 L201,9.11481143 C200.97981,8.32913086 200.335753,7.70276777 199.548333,7.70302618 L199.213333,7.77733066 Z"></path>
                    <path d="M149.819444,104.261707 L117.324444,112.063678 C115.755881,112.446093 114.098699,112.163691 112.746111,111.283481 L74.035,86.0199557 C73.723148,85.7996859 73.3336397,85.7186068 72.9595729,85.7960974 C72.5855061,85.8735879 72.2604952,86.1026846 72.0622222,86.4286303 C71.8906247,86.6380762 71.7983806,86.9011351 71.8015012,87.1716752 L71.8015012,125.17842 C71.7991634,126.122193 72.2754603,127.003084 73.0672222,127.519012 L112.746111,153.525582 C114.104177,154.393064 115.760983,154.661957 117.324444,154.268627 L151.680556,146.057981 C163.106743,143.304565 171.173543,133.121166 171.222222,121.388892 L171.222222,120.608694 C171.079335,111.143339 163.285669,103.580409 153.802222,103.704424 C152.458183,103.743981 151.122572,103.930864 149.819444,104.261707 L149.819444,104.261707 Z"></path>
                    <path d="M149.819444,188.522996 L117.324444,196.324967 C115.755306,196.689752 114.105101,196.40854 112.746111,195.54477 L74.035,170.281244 C73.7244606,170.068031 73.3415059,169.987348 72.9711247,170.057099 C72.6007435,170.126851 72.2735731,170.341269 72.0622222,170.652767 C71.8930928,170.877848 71.8016471,171.151611 71.8016471,171.432964 L71.8016471,209.439709 C71.7991634,210.383482 72.2754603,211.264373 73.0672222,211.7803 L112.746111,237.786871 C114.091809,238.684485 115.756594,238.968182 117.324444,238.567068 L151.680556,230.31927 C163.122119,227.589862 171.200494,217.391849 171.222222,205.65018 L171.222222,204.869983 C171.079335,195.404627 163.285669,187.841697 153.802222,187.965712 C152.456704,187.987077 151.118982,188.174255 149.819444,188.522996 L149.819444,188.522996 Z"></path>
                </g>
                <g transform="translate(71.000000, 1.000000)" fill="#2A344F">
                    <path d="M43,153.843657 L43,112.068447 C43.809948,112.234978 44.645587,112.234978 45.455535,112.068447 L59.444646,108.368251 L67.629764,148.330365 L45.306715,153.732651 C44.55452,153.932525 43.768085,153.970371 43,153.843657 Z M75.814882,188.366483 L45.455535,195.766875 C44.645587,195.933405 43.809948,195.933405 43,195.766875 L43,237.875102 C43.809948,238.041633 44.645587,238.041633 45.455535,237.875102 L84,228.476605 L75.814882,188.366483 Z M43,69.9602196 C43.809948,70.1267502 44.645587,70.1267502 45.455535,69.9602196 L51.296733,68.5541453 L43,28 L43,69.9602196 Z" id="Shape" opacity="0.32"></path>
                    <g opacity="0.16" id="Path">
                        <path d="M0.25320755,42.2534861 C1.04542512,42.4040299 1.80442205,42.6937052 2.49471698,43.1089704 L41.3475472,68.40155 C41.9887568,68.8259901 42.715631,69.10531 43.4769811,69.2198394 L43.4769811,27.0407433 C42.715631,26.9262139 41.9887568,26.646894 41.3475472,26.2224539 L2.49471698,0.92987425 C1.80442205,0.51460907 1.04542512,0.22493375 0.25320755,0.07438994 L0.25320755,42.2534861 Z"></path>
                        <path d="M43.4769811,195.794323 C42.720121,195.642791 41.9980824,195.352717 41.3475472,194.938838 L2.49471698,169.646259 C1.82402381,169.2053 0.92135762,169.388372 0.47735849,170.055403 C0.33046762,170.275877 0.25246909,170.534734 0.253187913,170.799303 L0.253187913,208.849757 C0.25069513,209.794615 0.72873566,210.676519 1.52339623,211.19304 L41.3475472,237.229519 C42.0029765,237.625904 42.7240305,237.902987 43.4769811,238.047809 L43.4769811,195.794323 Z"></path>
                        <path d="M2.49471698,85.2880665 C1.82402381,84.8471077 0.92135762,85.0301793 0.47735849,85.6972112 C0.33046762,85.9176848 0.25246909,86.1765419 0.253187913,86.4411106 L0.253187913,124.491565 C0.25069513,125.436423 0.72873566,126.318327 1.52339623,126.834848 L41.3475472,152.871327 C41.9971228,153.279434 42.7204558,153.557394 43.4769811,153.689617 L43.4769811,111.58491 C42.7132786,111.456796 41.986685,111.164893 41.3475472,110.729426 L2.49471698,85.2880665 Z"></path>
                    </g>
                </g>
            </g>
            <text id="Themesberg" fill="#fff" font-family="NunitoSans-ExtraBold, Nunito Sans" font-size="129" font-weight="600">
                <tspan x="260" y="162">Themesberg</tspan>
            </text>
        </g>
    </g>
</svg>