<?xml version="1.0" standalone="no"?>
<!DOCTYPE svg PUBLIC "-//W3C//DTD SVG 20010904//EN"
 "http://www.w3.org/TR/2001/REC-SVG-20010904/DTD/svg10.dtd">
<svg version="1.0" xmlns="http://www.w3.org/2000/svg"
 width="260.000000pt" height="260.000000pt" viewBox="0 0 260.000000 260.000000"
 preserveAspectRatio="xMidYMid meet">
<metadata>
Created by potrace 1.11, written by Peter Selinger 2001-2013
</metadata>
<g transform="translate(0.000000,260.000000) scale(0.100000,-0.100000)"
fill="#000000" stroke="none">
<path d="M0 1300 l0 -1300 1300 0 1300 0 0 1300 0 1300 -1300 0 -1300 0 0
-1300z m1004 910 c66 -25 162 -86 238 -151 l57 -49 88 71 c276 222 490 206
542 -39 15 -74 14 -216 -4 -308 -8 -43 -14 -79 -12 -80 1 -1 40 -16 85 -33
216 -78 353 -203 352 -320 -1 -117 -137 -243 -349 -323 l-83 -31 6 -36 c52
-307 3 -494 -140 -541 -101 -34 -278 39 -434 177 l-44 40 -84 -68 c-148 -119
-306 -179 -401 -150 -57 17 -104 61 -132 123 -29 68 -38 225 -18 348 7 47 14
89 14 93 0 5 -39 23 -87 41 -209 79 -348 209 -348 326 0 53 44 133 102 185 55
50 200 126 285 151 48 14 54 19 49 37 -34 139 -33 352 3 433 55 126 162 161
315 104z"/>
<path d="M840 2118 c-57 -30 -86 -155 -69 -303 13 -124 21 -150 45 -149 10 1
74 10 141 19 l122 18 33 46 c18 25 57 74 86 109 62 74 64 69 -43 149 -120 91
-259 140 -315 111z"/>
<path d="M1653 2111 c-59 -22 -168 -91 -231 -148 l-44 -38 66 -79 c36 -43 75
-93 88 -112 20 -29 29 -33 83 -39 33 -4 91 -13 128 -21 38 -8 74 -14 81 -14
30 0 49 270 25 364 -24 97 -90 126 -196 87z"/>
<path d="M1257 1791 c-31 -38 -57 -72 -57 -75 0 -3 54 -6 121 -6 l120 0 -62
75 c-34 41 -62 75 -63 75 -1 0 -28 -31 -59 -69z"/>
<path d="M1118 1603 c-26 -31 -105 -164 -145 -246 l-38 -78 30 -57 c40 -77
134 -233 153 -254 13 -16 36 -18 201 -18 l187 0 56 93 c30 50 74 126 97 167
l40 76 -60 108 c-33 59 -77 133 -97 164 l-38 57 -185 3 c-167 2 -187 1 -201
-15z m272 -165 c50 -26 90 -89 90 -143 0 -54 -40 -117 -90 -142 -24 -13 -58
-23 -75 -23 -17 0 -51 10 -75 23 -50 25 -90 88 -90 142 0 17 10 51 23 75 25
50 88 90 142 90 17 0 51 -10 75 -22z"/>
<path d="M905 1589 c-22 -5 -50 -11 -62 -14 l-23 -5 30 -82 c31 -84 40 -100
47 -82 2 6 26 50 53 98 28 47 50 88 50 91 0 7 -50 4 -95 -6z"/>
<path d="M1630 1594 c0 -5 58 -107 97 -172 8 -13 17 -22 19 -19 10 10 63 161
59 165 -6 6 -133 31 -157 32 -10 0 -18 -3 -18 -6z"/>
<path d="M647 1520 c-156 -58 -269 -144 -282 -214 -9 -48 28 -112 94 -160 54
-40 203 -113 248 -122 28 -5 30 -3 47 51 10 31 32 91 50 133 l33 76 -33 76
c-17 42 -40 102 -50 133 -10 32 -20 57 -23 57 -3 -1 -41 -14 -84 -30z"/>
<path d="M1885 1513 c-8 -19 -15 -38 -15 -40 0 -3 -16 -46 -37 -96 -30 -76
-35 -94 -25 -116 5 -14 29 -73 52 -131 23 -58 43 -106 45 -108 1 -1 38 11 81
28 77 31 167 82 211 119 32 27 73 91 73 113 0 82 -132 185 -317 249 l-53 18
-15 -36z"/>
<path d="M1687 1079 c-32 -56 -55 -104 -52 -107 7 -8 157 17 169 28 6 6 -50
180 -58 180 -1 0 -27 -46 -59 -101z"/>
<path d="M851 1084 c-17 -47 -31 -87 -31 -89 0 -2 33 -8 73 -15 39 -6 83 -13
96 -16 23 -5 23 -5 -8 48 -18 29 -44 77 -59 106 -14 28 -29 52 -33 52 -4 0
-21 -38 -38 -86z"/>
<path d="M796 901 c-12 -18 -29 -146 -30 -221 -1 -96 15 -163 49 -206 21 -26
29 -29 82 -29 44 1 74 8 126 32 69 33 215 136 224 159 2 7 -19 41 -49 76 -29
35 -68 84 -86 109 l-34 46 -76 7 c-42 4 -105 13 -139 20 -35 8 -65 11 -67 7z"/>
<path d="M1720 890 c-52 -10 -109 -19 -127 -19 -27 -1 -39 -11 -79 -63 -27
-35 -67 -86 -91 -114 l-44 -52 53 -45 c124 -105 252 -165 326 -153 73 11 107
92 107 251 -1 110 -20 216 -38 214 -7 -1 -55 -10 -107 -19z"/>
<path d="M1200 854 c0 -3 26 -37 57 -75 65 -79 60 -80 140 24 l44 57 -120 0
c-67 0 -121 -3 -121 -6z"/>
</g>
</svg>
