<?xml version="1.0" encoding="utf-8"?>
<!-- Generator: Adobe Illustrator 25.0.0, SVG Export Plug-In . SVG Version: 6.00 Build 0)  -->
<svg version="1.1" id="Layer_1" xmlns="http://www.w3.org/2000/svg" xmlns:xlink="http://www.w3.org/1999/xlink" x="0px" y="0px"
	 viewBox="0 0 256 230" style="enable-background:new 0 0 256 230;" xml:space="preserve">
<style type="text/css">
	.st0{fill:#53C1DE;}
	.st1{fill:#FFFFFF;}
</style>
<path class="st0" d="M208.3,76.1c-2.6-0.9-5.3-1.7-8-2.5c0.5-1.8,0.9-3.7,1.2-5.5c6.1-29.4,2.1-53.1-11.4-60.9
	c-13-7.5-34.2,0.3-55.6,19c-2.1,1.8-4.1,3.7-6.2,5.7c-1.4-1.3-2.7-2.6-4.1-3.8C101.8,8.2,79.3-0.2,65.8,7.6
	c-13,7.5-16.8,29.8-11.3,57.6c0.5,2.7,1.1,5.4,1.8,8.2c-3.2,0.9-6.3,1.9-9.2,2.9C20.8,85.5,4,99.9,4,114.8c0,15.4,18,30.9,45.4,40.2
	c2.2,0.7,4.4,1.4,6.7,2.1c-0.8,3-1.4,6-2,8.9C49,193.4,53,215.1,66,222.6c13.3,7.7,35.7-0.2,57.5-19.3c1.7-1.5,3.5-3.1,5.2-4.8
	c2.2,2.2,4.5,4.2,6.7,6.1c21.1,18.2,42,25.5,54.9,18c13.3-7.7,17.7-31.1,12-59.5c-0.4-2.2-0.9-4.4-1.5-6.6c1.6-0.5,3.1-0.9,4.6-1.4
	c28.5-9.4,47-24.7,47-40.3C252.5,99.8,235.2,85.4,208.3,76.1L208.3,76.1L208.3,76.1z"/>
<path class="st1" d="M202.1,145c-1.4,0.4-2.8,0.9-4.2,1.3c-3.1-10-7.4-20.5-12.6-31.5c5-10.7,9-21.1,12.1-31c2.5,0.7,5,1.5,7.4,2.3
	c23,7.9,37,19.6,37,28.6C241.9,124.4,226.8,136.9,202.1,145L202.1,145L202.1,145z M191.9,165.3c2.5,12.6,2.8,23.9,1.2,32.8
	c-1.5,8-4.5,13.3-8.1,15.4c-7.8,4.5-24.6-1.4-42.6-16.9c-2.1-1.8-4.2-3.7-6.2-5.7c7-7.7,14-16.6,20.8-26.5c12-1.1,23.4-2.8,33.7-5.2
	C191.1,161.3,191.6,163.3,191.9,165.3L191.9,165.3L191.9,165.3z M88.7,212.7c-7.7,2.7-13.7,2.8-17.4,0.7c-7.8-4.5-11.1-22-6.7-45.4
	c0.5-2.7,1.1-5.4,1.8-8.3c10.2,2.3,21.5,3.9,33.5,4.8c6.9,9.7,14.1,18.6,21.3,26.4c-1.6,1.5-3.2,3-4.7,4.4
	C106.9,203.7,97.2,209.7,88.7,212.7L88.7,212.7L88.7,212.7z M52.9,145c-12.1-4.1-22.1-9.5-29-15.4c-6.2-5.3-9.3-10.5-9.3-14.8
	c0-9.1,13.5-20.6,36-28.4c2.7-1,5.6-1.8,8.6-2.7c3.1,10.1,7.2,20.7,12.1,31.4c-5,10.9-9.1,21.6-12.3,31.8
	C56.9,146.3,54.8,145.7,52.9,145L52.9,145L52.9,145z M64.9,63.2c-4.7-23.9-1.6-41.9,6.2-46.4c8.3-4.8,26.7,2,46.1,19.3
	c1.2,1.1,2.5,2.3,3.7,3.4c-7.2,7.8-14.4,16.6-21.2,26.2c-11.7,1.1-22.9,2.8-33.2,5.2C65.9,68.2,65.4,65.7,64.9,63.2L64.9,63.2
	L64.9,63.2z M172.1,89.7c-2.5-4.2-5-8.4-7.6-12.4c7.9,1,15.5,2.3,22.7,4c-2.1,6.9-4.8,14-8,21.4C177,98.3,174.6,94,172.1,89.7
	L172.1,89.7L172.1,89.7z M128.4,47.1c4.9,5.3,9.8,11.2,14.6,17.7c-4.9-0.2-9.8-0.3-14.7-0.3c-4.9,0-9.8,0.1-14.6,0.3
	C118.4,58.3,123.4,52.4,128.4,47.1L128.4,47.1L128.4,47.1z M84.4,89.7c-2.5,4.3-4.8,8.6-7,12.9c-3.1-7.3-5.7-14.5-7.9-21.5
	c7.1-1.6,14.7-2.9,22.5-3.9C89.4,81.3,86.8,85.5,84.4,89.7L84.4,89.7L84.4,89.7z M92.2,153.2c-8.1-0.9-15.8-2.1-22.9-3.7
	c2.2-7.1,4.9-14.5,8.1-21.9c2.2,4.3,4.6,8.6,7,12.9h0C86.9,144.8,89.5,149,92.2,153.2L92.2,153.2L92.2,153.2z M128.7,183.3
	c-5-5.4-10.1-11.4-15-17.9c4.8,0.2,9.6,0.3,14.5,0.3c5.1,0,10.1-0.1,15-0.3C138.4,171.9,133.5,177.9,128.7,183.3L128.7,183.3
	L128.7,183.3z M179.3,127.2c3.3,7.6,6.1,14.9,8.3,21.9c-7.2,1.6-15,3-23.2,4c2.6-4.1,5.1-8.3,7.6-12.6
	C174.7,135.9,177.1,131.6,179.3,127.2L179.3,127.2L179.3,127.2z M162.9,135c-3.9,6.7-7.9,13.2-11.9,19.2c-7.4,0.5-15,0.8-22.8,0.8
	c-7.7,0-15.3-0.2-22.5-0.7c-4.2-6.2-8.3-12.6-12.1-19.3h0c-3.9-6.7-7.4-13.4-10.6-20c3.2-6.7,6.7-13.4,10.6-20l0,0
	c3.8-6.7,7.9-13.1,12.1-19.2c7.4-0.6,15-0.9,22.6-0.9h0c7.7,0,15.3,0.3,22.7,0.9c4.1,6.1,8.1,12.5,12,19.1
	c3.9,6.7,7.5,13.4,10.7,19.9C170.4,121.6,166.8,128.3,162.9,135L162.9,135L162.9,135z M184.8,16.5c8.3,4.8,11.6,24.2,6.3,49.5
	c-0.3,1.6-0.7,3.3-1.1,4.9c-10.3-2.4-21.5-4.1-33.2-5.2c-6.8-9.7-13.9-18.6-21-26.2c1.9-1.8,3.8-3.6,5.7-5.2
	C159.9,18.3,177,12,184.8,16.5L184.8,16.5L184.8,16.5z"/>
<path class="st0" d="M128.2,92.6c12.3,0,22.2,9.9,22.2,22.2c0,12.3-9.9,22.2-22.2,22.2s-22.2-9.9-22.2-22.2
	C106.1,102.6,116,92.6,128.2,92.6"/>
</svg>
