<svg id="a421d5b9-5b2f-48eb-a367-1542e1a991e0" data-name="Layer 1" xmlns="http://www.w3.org/2000/svg" viewBox="0 0 248.55 221.14"><defs><style>.a07892b7-4fea-4628-9d27-6bd25beeff87{fill:#53c1de;}.e79d2161-0830-42a5-84a0-7e4a3a5c9f39{fill:#262b40;}</style></defs><path class="a07892b7-4fea-4628-9d27-6bd25beeff87" d="M208.33,76.13q-3.87-1.34-8-2.53c.45-1.84.87-3.66,1.24-5.45,6.05-29.4,2.09-53.09-11.43-60.89-13-7.47-34.17.32-55.59,19-2.06,1.79-4.12,3.69-6.19,5.68-1.37-1.32-2.75-2.59-4.12-3.8C101.8,8.17,79.3-.23,65.79,7.59c-13,7.5-16.79,29.76-11.34,57.63.53,2.69,1.14,5.44,1.84,8.23-3.18.9-6.26,1.87-9.2,2.89C20.78,85.52,4,99.9,4,114.81c0,15.4,18,30.85,45.45,40.22,2.16.74,4.41,1.44,6.72,2.1q-1.12,4.55-2,8.88C49,193.39,53.05,215.13,66,222.58c13.34,7.69,35.74-.22,57.55-19.28q2.58-2.27,5.18-4.78,3.38,3.24,6.72,6.13c21.13,18.18,42,25.52,54.9,18,13.33-7.72,17.66-31.08,12-59.49-.43-2.17-.93-4.39-1.49-6.64q2.35-.7,4.62-1.45c28.49-9.44,47-24.7,47-40.31,0-15-17.35-29.44-44.19-38.68Z" transform="translate(-3.97 -4.45)"/><path class="e79d2161-0830-42a5-84a0-7e4a3a5c9f39" d="M202.15,145c-1.36.45-2.75.89-4.17,1.31a250.45,250.45,0,0,0-12.59-31.49,248.72,248.72,0,0,0,12.1-31c2.54.74,5,1.52,7.38,2.34,23,7.91,37,19.62,37,28.64,0,9.61-15.15,22.08-39.75,30.23Zm-10.21,20.23c2.49,12.57,2.84,23.93,1.2,32.81-1.48,8-4.46,13.3-8.14,15.43-7.83,4.53-24.59-1.36-42.65-16.91-2.07-1.78-4.16-3.68-6.25-5.7a249.63,249.63,0,0,0,20.83-26.45,248.53,248.53,0,0,0,33.67-5.19q.75,3.08,1.34,6ZM88.71,212.72c-7.66,2.71-13.75,2.78-17.44.66-7.84-4.52-11.09-22-6.65-45.39.51-2.68,1.12-5.44,1.82-8.25a248.94,248.94,0,0,0,33.49,4.84,257.26,257.26,0,0,0,21.34,26.36q-2.38,2.3-4.74,4.37c-9.64,8.42-19.31,14.41-27.82,17.41ZM52.85,145c-12.12-4.15-22.12-9.53-29-15.41-6.17-5.28-9.28-10.52-9.28-14.77,0-9,13.49-20.59,36-28.44q4.09-1.43,8.55-2.69a254.19,254.19,0,0,0,12.12,31.39A257.65,257.65,0,0,0,59,146.91c-2.12-.61-4.16-1.25-6.14-1.92Zm12-81.81C60.2,39.31,63.3,21.3,71.11,16.78c8.32-4.82,26.7,2,46.08,19.26q1.86,1.65,3.73,3.44a253.22,253.22,0,0,0-21.17,26.2,259.12,259.12,0,0,0-33.17,5.15q-1-3.9-1.71-7.65ZM172.09,89.65q-3.69-6.37-7.56-12.43c7.93,1,15.53,2.33,22.66,4a226.7,226.7,0,0,1-7.95,21.41q-3.39-6.42-7.15-12.94ZM128.36,47.07A225.64,225.64,0,0,1,143,64.72q-7.29-.34-14.74-.35t-14.64.35c4.83-6.37,9.78-12.29,14.75-17.65Zm-44,42.65q-3.67,6.41-7,12.86c-3.1-7.34-5.74-14.55-7.9-21.51C76.54,79.48,84.1,78.19,92,77.2q-3.92,6.1-7.62,12.52Zm7.85,63.46a224.64,224.64,0,0,1-22.91-3.69c2.2-7.08,4.9-14.45,8.06-21.94q3.33,6.45,7,12.86h0q3.77,6.53,7.8,12.77Zm36.45,30.12c-5-5.43-10-11.43-15-17.89,4.76.18,9.62.28,14.55.28s10.07-.12,15-.33a226.91,226.91,0,0,1-14.59,17.94Zm50.68-56.13A225.13,225.13,0,0,1,187.68,149a225.06,225.06,0,0,1-23.18,4q3.87-6.13,7.63-12.65t7.21-13.17ZM162.93,135q-5.82,10.11-11.92,19.24c-7.38.53-15,.8-22.76.8s-15.26-.24-22.51-.71c-4.21-6.15-8.29-12.6-12.15-19.27h0c-3.85-6.65-7.39-13.36-10.6-20,3.21-6.69,6.74-13.4,10.57-20h0c3.84-6.66,7.88-13.08,12-19.19,7.4-.56,15-.85,22.64-.85h0c7.69,0,15.28.3,22.67.86Q157.09,85,162.9,95c3.89,6.73,7.47,13.4,10.71,19.94-3.23,6.66-6.8,13.39-10.68,20.12ZM184.84,16.46c8.32,4.8,11.56,24.16,6.33,49.54q-.51,2.43-1.12,5a254.26,254.26,0,0,0-33.23-5.25,249,249,0,0,0-21-26.23c1.91-1.83,3.82-3.59,5.72-5.24,18.35-16,35.5-22.27,43.32-17.77Z" transform="translate(-3.97 -4.45)"/><path class="a07892b7-4fea-4628-9d27-6bd25beeff87" d="M128.25,92.62a22.2,22.2,0,1,1-22.2,22.19,22.19,22.19,0,0,1,22.2-22.19" transform="translate(-3.97 -4.45)"/></svg>